<?xml version="1.0" encoding="UTF-8"?>
<svg id="Layer_2" data-name="Layer 2" xmlns="http://www.w3.org/2000/svg" viewBox="0 0 431.25 212.5">
  <defs>
    <style>
      .cls-1 {
        fill: #bb9f7d;
      }
    </style>
  </defs>
  <path class="cls-1" d="m431.25,212.5h-32.07l-5.21-5.21-5.21,5.21H42.93l-5.21-5.21-5.21,5.21H.43l15-15-6.25-6.25,7.29-7.29V28.54l-7.29-7.29,6.25-6.25L.43,0h32.07l5.21,5.21,5.21-5.21h345.82l5.21,5.21,5.21-5.21h32.07l-15,15,6.25,6.25-7.29,7.29v155.43l7.29,7.29-6.25,6.25,15,15Zm-30-5h17.93l-6.46-6.46-6.25,6.25-9.79-9.79,9.79-9.79,6.25,6.25,2.71-2.71-5.21-5.21V26.46l5.21-5.21-2.71-2.71-6.25,6.25-9.79-9.79,9.79-9.79,6.25,6.25,6.46-6.46h-17.93l-7.29,7.29-7.29-7.29H45l-7.29,7.29-7.29-7.29H12.5l6.46,6.46,6.25-6.25,9.79,9.79-9.79,9.79-6.25-6.25-2.71,2.71,5.21,5.21v159.57l-5.21,5.21,2.71,2.71,6.25-6.25,9.79,9.79-9.79,9.79-6.25-6.25-6.46,6.46h17.93l7.29-7.29,7.29,7.29h341.68l7.29-7.29,7.29,7.29Zm2.5-10l2.71,2.71,2.71-2.71-2.71-2.71-2.71,2.71Zm-381.25,0l2.71,2.71,2.71-2.71-2.71-2.71-2.71,2.71ZM403.75,15l2.71,2.71,2.71-2.71-2.71-2.71-2.71,2.71Zm-381.25,0l2.71,2.71,2.71-2.71-2.71-2.71-2.71,2.71Z"/>
</svg>